<svg width="115" height="100" viewBox="0 0 115 100" fill="none" xmlns="http://www.w3.org/2000/svg">
<g filter="url(#filter0_d_86_41)">
<path d="M4 53.1309C4 46.9759 5.37833 40.8813 8.05629 35.1948C10.7343 29.5084 14.6594 24.3416 19.6076 19.9894C24.5559 15.6372 30.4303 12.1849 36.8954 9.82947C43.3606 7.47408 50.2899 6.26178 57.2878 6.26178C64.2856 6.26178 71.2149 7.47409 77.6801 9.82949C84.1453 12.1849 90.0197 15.6372 94.9679 19.9894C99.9161 24.3416 103.841 29.5085 106.519 35.1949C109.197 40.8813 110.576 46.976 110.576 53.1309L84.0945 53.1309C84.0945 50.0346 83.4012 46.9686 82.054 44.1081C80.7068 41.2475 78.7323 38.6483 76.243 36.4589C73.7538 34.2694 70.7986 32.5327 67.5463 31.3478C64.2939 30.1629 60.8081 29.5531 57.2878 29.5531C53.7674 29.5531 50.2816 30.1629 47.0292 31.3478C43.7769 32.5327 40.8217 34.2694 38.3325 36.4588C35.8433 38.6482 33.8687 41.2474 32.5215 44.108C31.1744 46.9686 30.481 50.0346 30.481 53.1309H4Z" fill="#0FDA3B"/>
<mask id="path-2-inside-1_86_41" fill="white">
<path d="M38.5452 24.1508C38.5452 26.0301 39.0205 27.8911 39.9439 29.6274C40.8673 31.3637 42.2208 32.9414 43.9271 34.2703C45.6334 35.5992 47.659 36.6534 49.8884 37.3726C52.1178 38.0918 54.5072 38.462 56.9203 38.462C59.3333 38.462 61.7227 38.0918 63.9521 37.3726C66.1815 36.6534 68.2071 35.5992 69.9134 34.2703C71.6197 32.9414 72.9732 31.3637 73.8966 29.6274C74.8201 27.8911 75.2953 26.0301 75.2953 24.1508H66.164C66.164 25.0962 65.9249 26.0324 65.4603 26.9058C64.9958 27.7793 64.3149 28.573 63.4565 29.2415C62.5982 29.91 61.5792 30.4403 60.4577 30.8021C59.3362 31.1639 58.1342 31.3501 56.9203 31.3501C55.7064 31.3501 54.5043 31.1639 53.3828 30.8021C52.2613 30.4403 51.2423 29.91 50.384 29.2415C49.5256 28.573 48.8447 27.7793 48.3802 26.9058C47.9156 26.0324 47.6765 25.0962 47.6765 24.1508H38.5452Z"/>
</mask>
<path d="M38.5452 24.1508C38.5452 26.0301 39.0205 27.8911 39.9439 29.6274C40.8673 31.3637 42.2208 32.9414 43.9271 34.2703C45.6334 35.5992 47.659 36.6534 49.8884 37.3726C52.1178 38.0918 54.5072 38.462 56.9203 38.462C59.3333 38.462 61.7227 38.0918 63.9521 37.3726C66.1815 36.6534 68.2071 35.5992 69.9134 34.2703C71.6197 32.9414 72.9732 31.3637 73.8966 29.6274C74.8201 27.8911 75.2953 26.0301 75.2953 24.1508H66.164C66.164 25.0962 65.9249 26.0324 65.4603 26.9058C64.9958 27.7793 64.3149 28.573 63.4565 29.2415C62.5982 29.91 61.5792 30.4403 60.4577 30.8021C59.3362 31.1639 58.1342 31.3501 56.9203 31.3501C55.7064 31.3501 54.5043 31.1639 53.3828 30.8021C52.2613 30.4403 51.2423 29.91 50.384 29.2415C49.5256 28.573 48.8447 27.7793 48.3802 26.9058C47.9156 26.0324 47.6765 25.0962 47.6765 24.1508H38.5452Z" fill="#FF0E0E" stroke="black" stroke-width="2" mask="url(#path-2-inside-1_86_41)"/>
<path d="M49.0702 7.69291C49.0702 11.3803 46.1564 14.3485 42.5877 14.3485C39.019 14.3485 36.1052 11.3803 36.1052 7.69291C36.1052 4.00552 39.019 1.03732 42.5877 1.03732C46.1564 1.03732 49.0702 4.00552 49.0702 7.69291Z" fill="#D9D9D9" stroke="black"/>
<path d="M46.8652 7.69291C46.8652 7.81538 46.8078 7.97713 46.6098 8.17254C46.4099 8.3697 46.0951 8.57027 45.6657 8.74939C44.8093 9.10675 43.5914 9.33959 42.2202 9.33959C40.849 9.33959 39.6311 9.10675 38.7746 8.74939C38.3453 8.57027 38.0305 8.3697 37.8306 8.17254C37.6325 7.97713 37.5752 7.81538 37.5752 7.69291C37.5752 7.57044 37.6325 7.40869 37.8306 7.21328C38.0305 7.01612 38.3453 6.81556 38.7746 6.63643C39.6311 6.27907 40.849 6.04623 42.2202 6.04623C43.5914 6.04623 44.8093 6.27907 45.6657 6.63643C46.0951 6.81556 46.4099 7.01612 46.6098 7.21328C46.8078 7.40869 46.8652 7.57044 46.8652 7.69291Z" fill="#1C0404" stroke="black"/>
<path d="M74.7953 7.69291C74.7953 11.3803 71.8815 14.3485 68.3128 14.3485C64.7441 14.3485 61.8303 11.3803 61.8303 7.69291C61.8303 4.00552 64.7441 1.03732 68.3128 1.03732C71.8815 1.03732 74.7953 4.00552 74.7953 7.69291Z" fill="#D9D9D9" stroke="black"/>
<path d="M73.3253 7.69291C73.3253 7.81538 73.268 7.97713 73.0699 8.17254C72.87 8.3697 72.5552 8.57027 72.1259 8.74939C71.2694 9.10675 70.0515 9.33959 68.6803 9.33959C67.3091 9.33959 66.0912 9.10675 65.2348 8.74939C64.8054 8.57027 64.4906 8.3697 64.2907 8.17254C64.0926 7.97713 64.0353 7.81538 64.0353 7.69291C64.0353 7.57044 64.0926 7.40869 64.2907 7.21328C64.4906 7.01612 64.8054 6.81556 65.2348 6.63643C66.0912 6.27907 67.3091 6.04623 68.6803 6.04623C70.0515 6.04623 71.2694 6.27907 72.1259 6.63643C72.5552 6.81556 72.87 7.01612 73.0699 7.21328C73.268 7.40869 73.3253 7.57044 73.3253 7.69291Z" fill="#1C0404" stroke="black"/>
</g>
<defs>
<filter id="filter0_d_86_41" x="0" y="0.537323" width="114.576" height="60.5936" filterUnits="userSpaceOnUse" color-interpolation-filters="sRGB">
<feFlood flood-opacity="0" result="BackgroundImageFix"/>
<feColorMatrix in="SourceAlpha" type="matrix" values="0 0 0 0 0 0 0 0 0 0 0 0 0 0 0 0 0 0 127 0" result="hardAlpha"/>
<feOffset dy="4"/>
<feGaussianBlur stdDeviation="2"/>
<feComposite in2="hardAlpha" operator="out"/>
<feColorMatrix type="matrix" values="0 0 0 0 0 0 0 0 0 0 0 0 0 0 0 0 0 0 0.25 0"/>
<feBlend mode="normal" in2="BackgroundImageFix" result="effect1_dropShadow_86_41"/>
<feBlend mode="normal" in="SourceGraphic" in2="effect1_dropShadow_86_41" result="shape"/>
</filter>
</defs>
</svg>
