<svg width="307" height="159" viewBox="0 0 307 159" fill="none" xmlns="http://www.w3.org/2000/svg">
<g filter="url(#filter0_dd_53_3)">
<path d="M37.3984 11.4824C37.3984 14.5488 36.4707 17.0098 34.6152 18.8652C32.7598 20.7207 30.3086 21.6484 27.2617 21.6484C25.9922 21.6484 24.8105 21.502 23.7168 21.209C22.6426 20.8965 21.6562 20.418 20.7578 19.7734C19.7617 19.0703 19.0098 18.2305 18.502 17.2539C18.0137 16.2773 17.7695 15.1836 17.7695 13.9727C17.7695 12.957 17.9551 12.0586 18.3262 11.2773C18.6973 10.4766 19.2637 9.80273 20.0254 9.25586C20.709 8.76758 21.4707 8.39648 22.3105 8.14258C23.1699 7.88867 24.127 7.76172 25.1816 7.76172C25.8262 7.76172 26.4414 7.83984 27.0273 7.99609C27.6133 8.15234 28.1309 8.39648 28.5801 8.72852C29.1074 9.11914 29.498 9.56836 29.752 10.0762C30.0254 10.5645 30.1621 11.1309 30.1621 11.7754C30.1621 12.7129 29.8008 13.4941 29.0781 14.1191C28.375 14.7441 27.5352 15.0566 26.5586 15.0566C25.9336 15.0566 25.4062 14.9492 24.9766 14.7344C24.5469 14.5195 24.2148 14.1777 23.9805 13.709C24.1367 13.748 24.3027 13.7773 24.4785 13.7969C24.6543 13.8164 24.8105 13.8262 24.9473 13.8262C25.6309 13.8262 26.1387 13.709 26.4707 13.4746C26.8027 13.2207 26.9688 12.8301 26.9688 12.3027C26.9688 11.7949 26.793 11.4141 26.4414 11.1602C26.0898 10.8867 25.5625 10.75 24.8594 10.75C24.3906 10.75 23.9414 10.8184 23.5117 10.9551C23.082 11.0723 22.7109 11.2578 22.3984 11.5117C22.0273 11.8047 21.7441 12.1465 21.5488 12.5371C21.3535 12.9082 21.2559 13.3184 21.2559 13.7676C21.2559 15.2129 21.7246 16.2871 22.6621 16.9902C23.5996 17.6934 25.0059 18.0449 26.8809 18.0449C28.7168 18.0449 30.2012 17.4199 31.334 16.1699C32.4668 14.9004 33.0332 13.3379 33.0332 11.4824C33.0332 10.3691 32.7695 9.37305 32.2422 8.49414C31.7344 7.61523 30.9727 6.85352 29.957 6.20898C29.1172 5.66211 28.1797 5.26172 27.1445 5.00781C26.1289 4.75391 25.0254 4.62695 23.834 4.62695C22.3887 4.62695 21.0703 4.80273 19.8789 5.1543C18.6875 5.50586 17.6328 6.04297 16.7148 6.76562C15.7188 7.54688 14.9668 8.48438 14.459 9.57812C13.9512 10.6719 13.6973 11.9219 13.6973 13.3281C13.6973 14.7539 14.166 16.1406 15.1035 17.4883C16.041 18.8164 17.4473 20.1152 19.3223 21.3848C21.0801 22.5762 22.8281 23.7578 24.5664 24.9297C26.3047 26.1016 28.043 27.2734 29.7812 28.4453C31.6562 30.1055 33.0625 31.9316 34 33.9238C34.9375 35.8965 35.4062 38.0352 35.4062 40.3398C35.4062 42.5078 35.0156 44.4512 34.2344 46.1699C33.4727 47.8691 32.3105 49.334 30.748 50.5645C29.3027 51.6973 27.6719 52.5664 25.8555 53.1719C24.0586 53.7773 22.0566 54.0801 19.8496 54.0801C18.1113 54.0801 16.5098 53.9238 15.0449 53.6113C13.5996 53.2988 12.2617 52.8203 11.0312 52.1758C9.52734 51.375 8.39453 50.3887 7.63281 49.2168C6.87109 48.0254 6.49023 46.6387 6.49023 45.0566C6.49023 42.6543 7.13477 40.7207 8.42383 39.2559C9.73242 37.7715 11.5684 37.0293 13.9316 37.0293C14.8887 37.0293 15.7578 37.166 16.5391 37.4395C17.3203 37.7129 18.0332 38.1035 18.6777 38.6113C19.3809 39.1582 19.8984 39.8027 20.2305 40.5449C20.582 41.2871 20.7578 42.1074 20.7578 43.0059C20.7578 44.6855 20.3574 45.9453 19.5566 46.7852C18.7559 47.6055 17.5352 48.0156 15.8945 48.0156C15.0156 48.0156 14.2441 47.7715 13.5801 47.2832C12.9355 46.7754 12.6133 46.1113 12.6133 45.291C12.6133 44.5488 12.7793 43.9922 13.1113 43.6211C13.4629 43.25 13.9805 43.0645 14.6641 43.0645C14.7422 43.0645 14.8301 43.0742 14.9277 43.0938C15.0254 43.0938 15.123 43.0938 15.2207 43.0938C14.9863 43.2695 14.8105 43.4551 14.6934 43.6504C14.5762 43.8457 14.5176 44.041 14.5176 44.2363C14.5176 44.627 14.6348 44.9102 14.8691 45.0859C15.1035 45.2617 15.4453 45.3496 15.8945 45.3496C16.4023 45.3496 16.7734 45.1934 17.0078 44.8809C17.2617 44.5488 17.3887 44.0508 17.3887 43.3867C17.3887 42.9375 17.2812 42.5371 17.0664 42.1855C16.8711 41.8145 16.5586 41.4824 16.1289 41.1895C15.7773 40.9551 15.377 40.7793 14.9277 40.6621C14.498 40.5449 14.0391 40.4863 13.5508 40.4863C12.2031 40.4863 11.1875 40.877 10.5039 41.6582C9.82031 42.4199 9.47852 43.5527 9.47852 45.0566C9.47852 45.9355 9.68359 46.7168 10.0938 47.4004C10.5039 48.084 11.1094 48.6699 11.9102 49.1582C12.5742 49.5684 13.3164 49.8711 14.1367 50.0664C14.957 50.2617 15.8359 50.3594 16.7734 50.3594C17.9648 50.3594 19.0586 50.1543 20.0547 49.7441C21.0508 49.334 21.9395 48.709 22.7207 47.8691C23.4824 47.0488 24.0488 46.1406 24.4199 45.1445C24.8105 44.1484 25.0059 43.0352 25.0059 41.8047C25.0059 40.5156 24.6055 39.1484 23.8047 37.7031C23.0234 36.2383 21.8223 34.7051 20.2012 33.1035C18.7559 31.6777 17.2812 30.2715 15.7773 28.8848C14.293 27.498 12.8086 26.1016 11.3242 24.6953C9.74219 22.9961 8.55078 21.3262 7.75 19.6855C6.94922 18.0254 6.54883 16.4043 6.54883 14.8223C6.54883 12.4785 6.95898 10.4082 7.7793 8.61133C8.59961 6.81445 9.82031 5.31055 11.4414 4.09961C12.9062 3.00586 14.6055 2.19531 16.5391 1.66797C18.4922 1.12109 20.6895 0.847656 23.1309 0.847656C24.9277 0.847656 26.6172 1.0625 28.1992 1.49219C29.8008 1.90234 31.2754 2.53711 32.623 3.39648C34.2246 4.41211 35.416 5.59375 36.1973 6.94141C36.998 8.28906 37.3984 9.80273 37.3984 11.4824ZM54.7715 18.1914L54.0391 19.9785L51.4902 18.6602C51.2168 19.0117 50.9141 19.2949 50.582 19.5098C50.25 19.7246 49.8789 19.8809 49.4688 19.9785L50.0547 22.3809L48.0625 22.6738L47.5645 20.1543C47.252 20.0957 46.9395 19.9883 46.627 19.832C46.334 19.6562 46.0508 19.4609 45.7773 19.2461L43.8438 21.0332L42.4961 19.4805L44.752 17.8398C44.5566 17.4688 44.4395 17.0781 44.4004 16.668C44.3809 16.2578 44.4199 15.8184 44.5176 15.3496L41.9102 13.709L42.877 12.127L45.2793 13.7676C45.5137 13.4746 45.7773 13.2305 46.0703 13.0352C46.3828 12.8203 46.7344 12.6543 47.125 12.5371L46.627 9.08008H48.502L48.6191 12.3027C49.0488 12.3613 49.4395 12.459 49.791 12.5957C50.1426 12.7324 50.4746 12.9082 50.7871 13.123L52.8379 11.4824L54.1855 12.8301L51.8418 14.4121C51.998 14.627 52.1055 14.959 52.1641 15.4082C52.2227 15.8574 52.2422 16.4238 52.2227 17.1074L54.7715 18.1914ZM53.7754 55.3691L41.4414 53.7871L46.0117 25.252H51.4902L53.7754 55.3691ZM50.2891 40.252C50.2891 39.5684 50.1133 39.0508 49.7617 38.6992C49.4297 38.3477 48.9121 38.1719 48.209 38.1719C47.4863 38.1719 46.9492 38.3477 46.5977 38.6992C46.2461 39.0508 46.0703 39.5684 46.0703 40.252C46.0703 40.9551 46.2461 41.4824 46.5977 41.834C46.9492 42.1855 47.4863 42.3613 48.209 42.3613C48.9121 42.3613 49.4297 42.1855 49.7617 41.834C50.1133 41.4824 50.2891 40.9551 50.2891 40.252ZM50.2891 48.1914C50.2891 47.4492 50.0254 46.8145 49.498 46.2871C48.9707 45.7598 48.3262 45.4961 47.5645 45.4961C46.8418 45.4961 46.2168 45.7598 45.6895 46.2871C45.1621 46.8145 44.8984 47.4492 44.8984 48.1914C44.8984 48.9336 45.1621 49.5684 45.6895 50.0957C46.2168 50.6035 46.8418 50.8574 47.5645 50.8574C48.3262 50.8574 48.9707 50.6035 49.498 50.0957C50.0254 49.5684 50.2891 48.9336 50.2891 48.1914ZM103.463 51.8535L91.5098 53.2012L91.7441 38.4648C91.7832 36.375 91.5684 34.8027 91.0996 33.748C90.6504 32.6934 89.9668 32.166 89.0488 32.166C88.4824 32.166 87.9062 32.5176 87.3203 33.2207C86.7344 33.9043 86.1289 34.9395 85.5039 36.3262C85.0742 37.2637 84.7031 38.2109 84.3906 39.168C84.0977 40.125 83.834 41.0918 83.5996 42.0684C83.502 41.248 83.3945 40.4277 83.2773 39.6074C83.1797 38.7676 83.082 37.9375 82.9844 37.1172C82.8086 36.082 82.584 35.1836 82.3105 34.4219C82.0566 33.6406 81.7441 32.9863 81.373 32.459C80.8848 31.7754 80.2891 31.2578 79.5859 30.9062C78.8828 30.5547 78.0625 30.3789 77.125 30.3789C75.7773 30.3789 74.5664 30.8965 73.4922 31.9316C72.418 32.9668 71.4902 34.5195 70.709 36.5898L71.002 52.1465L60.4258 51.4141L64 23.0547L70.123 24.0215L70.416 30.0273C71.5879 28.543 72.8184 27.4297 74.1074 26.6875C75.416 25.9258 76.7832 25.5449 78.209 25.5449C79.5566 25.5449 80.7578 25.8086 81.8125 26.3359C82.8867 26.8633 83.7949 27.6641 84.5371 28.7383C85.6309 27.5469 86.7344 26.6582 87.8477 26.0723C88.9609 25.4668 90.0742 25.1641 91.1875 25.1641C92.4375 25.1641 93.5898 25.5059 94.6445 26.1895C95.6992 26.8535 96.666 27.8496 97.5449 29.1777C98.209 30.1738 98.7754 31.2871 99.2441 32.5176C99.7324 33.748 100.143 35.0859 100.475 36.5312L96.7539 37.5859L97.1934 39.8711L101.002 39.0801L101.295 41.5996L97.5742 42.2148L98.1016 44.7344L102.027 44.0898L102.496 46.6387L98.3066 46.8438L98.6875 49.5098L102.877 49.0703L103.463 51.8535ZM87.2617 47.5176C87.2617 48.5918 86.8906 49.5 86.1484 50.2422C85.4258 50.9844 84.5176 51.3555 83.4238 51.3555C82.3496 51.3555 81.4316 50.9844 80.6699 50.2422C79.9277 49.5 79.5566 48.5918 79.5566 47.5176C79.5566 46.4434 79.9277 45.5449 80.6699 44.8223C81.4316 44.0801 82.3496 43.709 83.4238 43.709C84.5176 43.709 85.4258 44.0801 86.1484 44.8223C86.8906 45.5449 87.2617 46.4434 87.2617 47.5176ZM139.439 39.2266C139.439 41.2383 139.146 43.0742 138.561 44.7344C137.975 46.375 137.105 47.8398 135.953 49.1289C134.762 50.457 133.355 51.4531 131.734 52.1172C130.133 52.8008 128.336 53.1426 126.344 53.1426C124.82 53.1426 123.443 52.8984 122.213 52.4102C121.002 51.9414 119.947 51.2188 119.049 50.2422C118.17 49.2852 117.506 48.2012 117.057 46.9902C116.627 45.7598 116.412 44.3633 116.412 42.8008C116.412 41.5898 116.598 40.4668 116.969 39.4316C117.34 38.377 117.887 37.4102 118.609 36.5312C119.391 35.5938 120.279 34.9004 121.275 34.4512C122.271 33.9824 123.365 33.748 124.557 33.748C126.334 33.748 127.848 34.2656 129.098 35.3008C130.348 36.3164 130.973 37.6934 130.973 39.4316C130.973 40.0957 130.875 40.7012 130.68 41.248C130.484 41.7754 130.211 42.2637 129.859 42.7129C129.469 43.2012 129.01 43.5625 128.482 43.7969C127.955 44.0312 127.369 44.1484 126.725 44.1484C125.768 44.1484 125.025 43.9336 124.498 43.5039C123.971 43.0547 123.658 42.3906 123.561 41.5117C123.736 41.668 123.932 41.7852 124.146 41.8633C124.361 41.9219 124.605 41.9512 124.879 41.9512C125.562 41.9512 126.07 41.7852 126.402 41.4531C126.734 41.1016 126.9 40.5742 126.9 39.8711C126.9 39.168 126.686 38.6406 126.256 38.2891C125.846 37.918 125.23 37.7324 124.41 37.7324C123.648 37.7324 122.965 37.8887 122.359 38.2012C121.773 38.4941 121.266 38.9434 120.836 39.5488C120.465 40.0762 120.182 40.6816 119.986 41.3652C119.791 42.0293 119.693 42.7617 119.693 43.5625C119.693 45.3398 120.348 46.7754 121.656 47.8691C122.984 48.9629 124.547 49.5098 126.344 49.5098C127.516 49.5098 128.57 49.2656 129.508 48.7773C130.445 48.2695 131.266 47.5176 131.969 46.5215C132.613 45.6035 133.092 44.627 133.404 43.5918C133.736 42.5371 133.902 41.3945 133.902 40.1641C133.902 38.7383 133.697 37.4395 133.287 36.2676C132.896 35.0957 132.301 34.0508 131.5 33.1328C130.66 32.1758 129.674 31.4531 128.541 30.9648C127.408 30.4766 126.129 30.2324 124.703 30.2324C123.453 30.2324 122.291 30.4863 121.217 30.9941C120.162 31.4824 119.186 32.2148 118.287 33.1914C117.447 34.0898 116.773 35.0957 116.266 36.209C115.758 37.3027 115.426 38.4746 115.27 39.7246L113.629 52.3516L109.439 53.2891L109.762 19.0996L113.277 18.6602L113.336 16.6973L109.703 16.8438V14.4707L113.424 14.0312L113.277 11.6875L109.703 12.127L109.586 10.0469L113.424 9.40234L113.57 7L109.586 7.67383V4.42188L122.33 2.13672L116.852 31.668C117.828 29.5977 119.303 27.918 121.275 26.6289C123.248 25.3398 125.367 24.6953 127.633 24.6953C129.547 24.6953 131.246 25.0762 132.73 25.8379C134.234 26.5801 135.523 27.7031 136.598 29.207C137.555 30.5547 138.268 32.0684 138.736 33.748C139.205 35.4082 139.439 37.2344 139.439 39.2266ZM177.057 36.2969L173.395 37.293C173.453 37.6641 173.502 38.0645 173.541 38.4941C173.58 38.9043 173.6 39.3438 173.6 39.8125C173.6 40.5156 173.551 41.209 173.453 41.8926C173.355 42.5762 173.209 43.2598 173.014 43.9434L175.943 45.291L174.449 47.8691L172.135 46.2285C171.393 47.8105 170.436 49.1484 169.264 50.2422C168.092 51.3359 166.705 52.2051 165.104 52.8496L165.924 56.3359L163.229 57.0098L162.701 53.582C162.115 53.6797 161.598 53.748 161.148 53.7871C160.719 53.8457 160.348 53.875 160.035 53.875C158.863 53.875 157.711 53.7285 156.578 53.4355C155.465 53.1426 154.391 52.6836 153.355 52.0586L151.188 55.4277L148.873 54.0801L151.334 50.5645C150.553 49.9199 149.859 49.1973 149.254 48.3965C148.668 47.5957 148.17 46.7266 147.76 45.7891L144.098 46.9316L143.57 44.4414L146.91 43.709C146.734 42.9863 146.607 42.293 146.529 41.6289C146.451 40.9648 146.412 40.3594 146.412 39.8125C146.412 39.207 146.441 38.6211 146.5 38.0547C146.578 37.4688 146.695 36.9121 146.852 36.3848L143.57 35.3301L144.244 32.8105L147.613 34.2168C148.082 33.0254 148.688 31.9414 149.43 30.9648C150.191 29.9883 151.08 29.1289 152.096 28.3867L150.133 25.3105L152.389 23.7578L154.322 27.0391C155.221 26.6094 156.139 26.2871 157.076 26.0723C158.033 25.8574 159.02 25.75 160.035 25.75C161.051 25.75 162.008 25.8574 162.906 26.0723C163.824 26.2676 164.703 26.5605 165.543 26.9512L167.096 24.168L169.381 25.457L167.799 28.2988C168.951 29.1387 169.938 30.1055 170.758 31.1992C171.578 32.293 172.262 33.5234 172.809 34.8906L176.383 33.3086L177.057 36.2969ZM165.396 39.8125C165.396 38.582 165.279 37.4492 165.045 36.4141C164.811 35.3789 164.43 34.4316 163.902 33.5723C163.277 32.5371 162.535 31.7656 161.676 31.2578C160.816 30.7305 159.811 30.4668 158.658 30.4668C157.545 30.4668 156.549 30.7305 155.67 31.2578C154.791 31.7656 154.049 32.5469 153.443 33.6016C152.936 34.4609 152.555 35.418 152.301 36.4727C152.066 37.5078 151.949 38.6211 151.949 39.8125C151.949 41.082 152.066 42.2441 152.301 43.2988C152.555 44.334 152.926 45.2715 153.414 46.1113C154.02 47.166 154.762 47.9473 155.641 48.4551C156.52 48.9629 157.525 49.2168 158.658 49.2168C159.83 49.2168 160.855 48.9629 161.734 48.4551C162.613 47.9473 163.346 47.166 163.932 46.1113C164.4 45.2715 164.762 44.334 165.016 43.2988C165.27 42.2441 165.396 41.082 165.396 39.8125ZM164.635 94.3965L163.99 99.0547C162.701 98.8203 161.422 98.6445 160.152 98.5273C158.883 98.4102 157.643 98.3516 156.432 98.3516C154.889 98.3516 153.326 98.4492 151.744 98.6445C150.182 98.8398 148.6 99.123 146.998 99.4941L149.781 142.854L136.539 141.125L139.82 99.8457L137.828 99.875C135.699 99.9141 133.824 99.8164 132.203 99.582C130.602 99.3477 129.273 98.9668 128.219 98.4395C126.754 97.6973 125.66 96.6719 124.938 95.3633C124.234 94.0547 123.883 92.4336 123.883 90.5V89.7676L125.846 89.0938C125.924 91.2812 126.744 92.9219 128.307 94.0156C129.889 95.0898 132.193 95.627 135.221 95.627C137.779 95.627 141.578 95.2461 146.617 94.4844C151.676 93.7227 155.484 93.3418 158.043 93.3418C159.391 93.3418 160.621 93.4395 161.734 93.6348C162.848 93.8105 163.814 94.0645 164.635 94.3965ZM145.299 112.795C145.299 112.092 145.123 111.564 144.771 111.213C144.439 110.861 143.922 110.686 143.219 110.686C142.516 110.686 141.979 110.861 141.607 111.213C141.256 111.564 141.08 112.092 141.08 112.795C141.08 113.518 141.256 114.055 141.607 114.406C141.979 114.738 142.516 114.904 143.219 114.904C143.922 114.904 144.439 114.738 144.771 114.406C145.123 114.055 145.299 113.518 145.299 112.795ZM145.797 121.525C145.797 120.803 145.533 120.178 145.006 119.65C144.498 119.104 143.873 118.83 143.131 118.83C142.389 118.83 141.754 119.104 141.227 119.65C140.699 120.178 140.436 120.803 140.436 121.525C140.436 122.287 140.699 122.932 141.227 123.459C141.754 123.986 142.389 124.25 143.131 124.25C143.873 124.25 144.498 123.986 145.006 123.459C145.533 122.932 145.797 122.287 145.797 121.525ZM145.152 130.725C145.152 130.041 144.977 129.523 144.625 129.172C144.293 128.82 143.775 128.645 143.072 128.645C142.369 128.645 141.832 128.82 141.461 129.172C141.109 129.523 140.934 130.041 140.934 130.725C140.934 131.428 141.109 131.955 141.461 132.307C141.832 132.639 142.369 132.805 143.072 132.805C143.775 132.805 144.293 132.639 144.625 132.307C144.977 131.955 145.152 131.428 145.152 130.725ZM193.697 120.324L190.855 121.379C190.855 121.535 190.865 121.77 190.885 122.082C190.904 122.395 190.914 122.639 190.914 122.814C190.914 123.322 190.855 123.801 190.738 124.25C190.641 124.68 190.484 125.08 190.27 125.451L192.789 127.238L191.207 128.791L188.98 127.004C188.668 127.297 188.307 127.57 187.896 127.824C187.506 128.078 187.066 128.332 186.578 128.586L185.084 126.535C185.396 126.145 185.621 125.754 185.758 125.363C185.914 124.973 185.992 124.582 185.992 124.191C185.992 123.391 185.719 122.785 185.172 122.375C184.625 121.965 183.805 121.76 182.711 121.76C181.5 121.76 180.211 122.414 178.844 123.723C177.477 125.012 176.031 126.945 174.508 129.523L174.947 145.637L164.898 144.143L169.469 116.545L174.098 115.607L174.332 124.25C174.957 123.371 175.562 122.59 176.148 121.906C176.734 121.223 177.301 120.627 177.848 120.119L176.588 117.277L178.58 116.252L179.635 118.684C180.318 118.273 181.012 117.932 181.715 117.658C182.438 117.365 183.17 117.16 183.912 117.043L184 114.113L186.139 114.318L185.699 116.984C186.793 117.043 187.721 117.297 188.482 117.746C189.264 118.176 189.859 118.791 190.27 119.592L192.936 118.186L193.697 120.324ZM172.662 132.307C172.662 131.701 172.506 131.242 172.193 130.93C171.881 130.598 171.393 130.432 170.729 130.432C170.123 130.432 169.664 130.598 169.352 130.93C169.039 131.242 168.883 131.701 168.883 132.307C168.883 132.932 169.039 133.4 169.352 133.713C169.664 134.006 170.123 134.152 170.729 134.152C171.393 134.152 171.881 134.006 172.193 133.713C172.506 133.4 172.662 132.932 172.662 132.307ZM172.516 139.484C172.516 138.801 172.281 138.225 171.812 137.756C171.363 137.268 170.807 137.023 170.143 137.023C169.498 137.023 168.932 137.268 168.443 137.756C167.975 138.225 167.74 138.801 167.74 139.484C167.74 140.285 167.936 140.881 168.326 141.271C168.736 141.662 169.342 141.857 170.143 141.857C170.963 141.857 171.559 141.662 171.93 141.271C172.32 140.881 172.516 140.285 172.516 139.484ZM209.283 109.191L208.551 110.979L206.002 109.66C205.729 110.012 205.426 110.295 205.094 110.51C204.762 110.725 204.391 110.881 203.98 110.979L204.566 113.381L202.574 113.674L202.076 111.154C201.764 111.096 201.451 110.988 201.139 110.832C200.846 110.656 200.562 110.461 200.289 110.246L198.355 112.033L197.008 110.48L199.264 108.84C199.068 108.469 198.951 108.078 198.912 107.668C198.893 107.258 198.932 106.818 199.029 106.35L196.422 104.709L197.389 103.127L199.791 104.768C200.025 104.475 200.289 104.23 200.582 104.035C200.895 103.82 201.246 103.654 201.637 103.537L201.139 100.08H203.014L203.131 103.303C203.561 103.361 203.951 103.459 204.303 103.596C204.654 103.732 204.986 103.908 205.299 104.123L207.35 102.482L208.697 103.83L206.354 105.412C206.51 105.627 206.617 105.959 206.676 106.408C206.734 106.857 206.754 107.424 206.734 108.107L209.283 109.191ZM208.287 146.369L195.953 144.787L200.523 116.252H206.002L208.287 146.369ZM204.801 131.252C204.801 130.568 204.625 130.051 204.273 129.699C203.941 129.348 203.424 129.172 202.721 129.172C201.998 129.172 201.461 129.348 201.109 129.699C200.758 130.051 200.582 130.568 200.582 131.252C200.582 131.955 200.758 132.482 201.109 132.834C201.461 133.186 201.998 133.361 202.721 133.361C203.424 133.361 203.941 133.186 204.273 132.834C204.625 132.482 204.801 131.955 204.801 131.252ZM204.801 139.191C204.801 138.449 204.537 137.814 204.01 137.287C203.482 136.76 202.838 136.496 202.076 136.496C201.354 136.496 200.729 136.76 200.201 137.287C199.674 137.814 199.41 138.449 199.41 139.191C199.41 139.934 199.674 140.568 200.201 141.096C200.729 141.604 201.354 141.857 202.076 141.857C202.838 141.857 203.482 141.604 204.01 141.096C204.537 140.568 204.801 139.934 204.801 139.191ZM237.789 116.105C237.789 116.73 237.643 117.199 237.35 117.512C237.057 117.805 236.607 117.951 236.002 117.951C235.396 117.951 234.928 117.805 234.596 117.512C234.283 117.199 234.127 116.73 234.127 116.105C234.127 115.48 234.283 115.012 234.596 114.699C234.928 114.387 235.396 114.23 236.002 114.23C236.607 114.23 237.057 114.387 237.35 114.699C237.643 115.012 237.789 115.48 237.789 116.105ZM235.27 122.375C235.27 123 235.113 123.469 234.801 123.781C234.508 124.094 234.039 124.25 233.395 124.25C232.77 124.25 232.291 124.094 231.959 123.781C231.646 123.469 231.49 123 231.49 122.375C231.49 121.77 231.646 121.311 231.959 120.998C232.291 120.666 232.77 120.5 233.395 120.5C234.039 120.5 234.508 120.666 234.801 120.998C235.113 121.311 235.27 121.77 235.27 122.375ZM232.867 128.645C232.867 129.289 232.711 129.768 232.398 130.08C232.086 130.373 231.617 130.52 230.992 130.52C230.387 130.52 229.918 130.373 229.586 130.08C229.273 129.768 229.117 129.289 229.117 128.645C229.117 128.039 229.273 127.58 229.586 127.268C229.918 126.955 230.387 126.799 230.992 126.799C231.617 126.799 232.086 126.955 232.398 127.268C232.711 127.58 232.867 128.039 232.867 128.645ZM244.059 117.805L229.703 145.637L228.766 143.908L225.836 145.988L224.635 144.055L227.711 141.945L225.924 138.723L222.701 140.773L221.5 138.664L224.781 136.877L222.701 133.068L219.479 135.002L218.277 133.068L221.646 131.105L219.566 127.443L216.285 129.172L215.084 127.297L218.424 125.451L216.021 121.027L212.506 122.873L211.568 120.939L223.141 114.904L230.934 137.375L239.898 115.959L244.059 117.805ZM260.377 109.191L259.645 110.979L257.096 109.66C256.822 110.012 256.52 110.295 256.188 110.51C255.855 110.725 255.484 110.881 255.074 110.979L255.66 113.381L253.668 113.674L253.17 111.154C252.857 111.096 252.545 110.988 252.232 110.832C251.939 110.656 251.656 110.461 251.383 110.246L249.449 112.033L248.102 110.48L250.357 108.84C250.162 108.469 250.045 108.078 250.006 107.668C249.986 107.258 250.025 106.818 250.123 106.35L247.516 104.709L248.482 103.127L250.885 104.768C251.119 104.475 251.383 104.23 251.676 104.035C251.988 103.82 252.34 103.654 252.73 103.537L252.232 100.08H254.107L254.225 103.303C254.654 103.361 255.045 103.459 255.396 103.596C255.748 103.732 256.08 103.908 256.393 104.123L258.443 102.482L259.791 103.83L257.447 105.412C257.604 105.627 257.711 105.959 257.77 106.408C257.828 106.857 257.848 107.424 257.828 108.107L260.377 109.191ZM259.381 146.369L247.047 144.787L251.617 116.252H257.096L259.381 146.369ZM255.895 131.252C255.895 130.568 255.719 130.051 255.367 129.699C255.035 129.348 254.518 129.172 253.814 129.172C253.092 129.172 252.555 129.348 252.203 129.699C251.852 130.051 251.676 130.568 251.676 131.252C251.676 131.955 251.852 132.482 252.203 132.834C252.555 133.186 253.092 133.361 253.814 133.361C254.518 133.361 255.035 133.186 255.367 132.834C255.719 132.482 255.895 131.955 255.895 131.252ZM255.895 139.191C255.895 138.449 255.631 137.814 255.104 137.287C254.576 136.76 253.932 136.496 253.17 136.496C252.447 136.496 251.822 136.76 251.295 137.287C250.768 137.814 250.504 138.449 250.504 139.191C250.504 139.934 250.768 140.568 251.295 141.096C251.822 141.604 252.447 141.857 253.17 141.857C253.932 141.857 254.576 141.604 255.104 141.096C255.631 140.568 255.895 139.934 255.895 139.191ZM294.83 139.982L294.801 141.564C291.773 142.932 288.775 143.947 285.807 144.611C282.857 145.295 279.938 145.637 277.047 145.637C275.445 145.637 273.98 145.48 272.652 145.168C271.324 144.855 270.133 144.396 269.078 143.791C267.828 143.068 266.881 142.141 266.236 141.008C265.611 139.875 265.299 138.557 265.299 137.053C265.299 134.396 266.627 132.023 269.283 129.934C271.959 127.844 275.943 126.037 281.236 124.514C280.807 123.264 280.074 122.316 279.039 121.672C278.023 121.027 276.725 120.705 275.143 120.705C273.443 120.705 271.9 121.057 270.514 121.76C269.127 122.443 267.896 123.459 266.822 124.807L265.27 123.312C266.91 120.793 268.941 118.898 271.363 117.629C273.785 116.34 276.607 115.695 279.83 115.695C282.447 115.695 284.742 116.428 286.715 117.893C288.707 119.338 290.387 121.516 291.754 124.426C292.828 126.711 293.619 129.152 294.127 131.75C294.654 134.328 294.889 137.072 294.83 139.982ZM290.289 129.787C290.289 129.084 290.113 128.557 289.762 128.205C289.43 127.854 288.912 127.678 288.209 127.678C287.506 127.678 286.969 127.854 286.598 128.205C286.246 128.557 286.07 129.084 286.07 129.787C286.07 130.49 286.246 131.018 286.598 131.369C286.969 131.701 287.506 131.867 288.209 131.867C288.912 131.867 289.43 131.701 289.762 131.369C290.113 131.018 290.289 130.49 290.289 129.787ZM283.316 137.814C283.316 136.037 283.229 134.279 283.053 132.541C282.896 130.803 282.643 129.084 282.291 127.385C280.455 127.912 278.795 128.479 277.311 129.084C275.846 129.67 274.566 130.295 273.473 130.959L276.461 143.059C278.023 143.059 279.371 142.971 280.504 142.795C281.637 142.619 282.545 142.336 283.229 141.945C283.268 141.242 283.287 140.549 283.287 139.865C283.307 139.182 283.316 138.498 283.316 137.814ZM291.49 137.697C291.49 136.955 291.227 136.32 290.699 135.793C290.191 135.266 289.557 135.002 288.795 135.002C288.053 135.002 287.408 135.256 286.861 135.764C286.334 136.271 286.07 136.916 286.07 137.697C286.07 138.459 286.334 139.094 286.861 139.602C287.408 140.109 288.053 140.363 288.795 140.363C289.557 140.363 290.191 140.109 290.699 139.602C291.227 139.074 291.49 138.439 291.49 137.697Z" fill="white"/>
</g>
<defs>
<filter id="filter0_dd_53_3" x="0.490234" y="0.847656" width="306.428" height="157.521" filterUnits="userSpaceOnUse" color-interpolation-filters="sRGB">
<feFlood flood-opacity="0" result="BackgroundImageFix"/>
<feColorMatrix in="SourceAlpha" type="matrix" values="0 0 0 0 0 0 0 0 0 0 0 0 0 0 0 0 0 0 127 0" result="hardAlpha"/>
<feOffset dy="6"/>
<feGaussianBlur stdDeviation="3"/>
<feComposite in2="hardAlpha" operator="out"/>
<feColorMatrix type="matrix" values="0 0 0 0 0 0 0 0 0 0 0 0 0 0 0 0 0 0 0.25 0"/>
<feBlend mode="normal" in2="BackgroundImageFix" result="effect1_dropShadow_53_3"/>
<feColorMatrix in="SourceAlpha" type="matrix" values="0 0 0 0 0 0 0 0 0 0 0 0 0 0 0 0 0 0 127 0" result="hardAlpha"/>
<feOffset dx="6" dy="6"/>
<feGaussianBlur stdDeviation="3"/>
<feComposite in2="hardAlpha" operator="out"/>
<feColorMatrix type="matrix" values="0 0 0 0 0 0 0 0 0 0 0 0 0 0 0 0 0 0 0.25 0"/>
<feBlend mode="normal" in2="effect1_dropShadow_53_3" result="effect2_dropShadow_53_3"/>
<feBlend mode="normal" in="SourceGraphic" in2="effect2_dropShadow_53_3" result="shape"/>
</filter>
</defs>
</svg>
